<svg fill="#36c6e2" viewBox="0 0 24.00 24.00" xmlns="http://www.w3.org/2000/svg" stroke="#36c6e2" stroke-width="0.00024000000000000003" transform="rotate(0)"><g id="SVGRepo_bgCarrier" stroke-width="0"></g><g id="SVGRepo_tracerCarrier" stroke-linecap="round" stroke-linejoin="round"></g><g id="SVGRepo_iconCarrier"><path d="M10.5,2h-4a1,1,0,0,0-1,1V8h6V3A1,1,0,0,0,10.5,2Z"></path><path d="M5.5,14a1,1,0,0,0,1,1h5V9h-6Z"></path><path d="M17.5,9h-5v6h6V10A1,1,0,0,0,17.5,9Z"></path><path d="M12.5,21a1,1,0,0,0,1,1h4a1,1,0,0,0,1-1V16h-6Z"></path></g></svg>